<mxfile host="app.diagrams.net" modified="2020-12-08T21:06:31.650Z" agent="5.0 (Windows NT 10.0; Win64; x64) AppleWebKit/537.36 (KHTML, like Gecko) Chrome/87.0.4280.88 Safari/537.36" etag="x6npmmDk5_-QNxQ37I84" version="13.10.9" type="github">
  <diagram id="0uUaryKaviv8fdEUKpWz" name="Page-1">
    <mxGraphModel dx="2249" dy="1874" grid="1" gridSize="10" guides="1" tooltips="1" connect="1" arrows="1" fold="1" page="1" pageScale="1" pageWidth="827" pageHeight="1169" math="0" shadow="0">
      <root>
        <mxCell id="0" />
        <mxCell id="1" parent="0" />
        <mxCell id="A_9Sl46dPCUKxYy6Pm-M-2" value="&lt;p style=&quot;margin: 0px ; margin-top: 4px ; text-align: center&quot;&gt;&lt;i&gt;&amp;lt;&amp;lt;Interface&amp;gt;&amp;gt;&lt;/i&gt;&lt;br&gt;&lt;b&gt;Asignable&lt;/b&gt;&lt;/p&gt;&lt;p style=&quot;margin: 0px ; margin-top: 4px ; text-align: center&quot;&gt;&lt;b&gt;&amp;lt;T extends Identificable&amp;gt;&lt;/b&gt;&lt;br&gt;&lt;/p&gt;&lt;hr size=&quot;1&quot;&gt;&lt;p style=&quot;margin: 0px ; margin-left: 4px&quot;&gt;+&amp;nbsp;getNombrableIdentificable(): T&lt;/p&gt;&lt;p style=&quot;margin: 0px ; margin-left: 4px&quot;&gt;&lt;br&gt;&lt;/p&gt;&lt;p style=&quot;margin: 0px ; margin-left: 4px&quot;&gt;+&amp;nbsp;setNombrableIdentificable(T nombrableIdentificable):void&lt;/p&gt;" style="verticalAlign=top;align=left;overflow=fill;fontSize=12;fontFamily=Helvetica;html=1;" parent="1" vertex="1">
          <mxGeometry x="-380" y="-160" width="340" height="110" as="geometry" />
        </mxCell>
        <mxCell id="A_9Sl46dPCUKxYy6Pm-M-4" style="edgeStyle=orthogonalEdgeStyle;rounded=0;orthogonalLoop=1;jettySize=auto;html=1;endArrow=block;endFill=0;dashed=1;endSize=13;entryX=1.003;entryY=0.182;entryDx=0;entryDy=0;entryPerimeter=0;" parent="1" source="A_9Sl46dPCUKxYy6Pm-M-7" target="A_9Sl46dPCUKxYy6Pm-M-2" edge="1">
          <mxGeometry relative="1" as="geometry">
            <mxPoint x="220" y="270" as="sourcePoint" />
            <Array as="points">
              <mxPoint x="-20" y="192" />
              <mxPoint x="-20" y="-140" />
            </Array>
            <mxPoint x="-10" y="-140" as="targetPoint" />
          </mxGeometry>
        </mxCell>
        <mxCell id="_Y7coBUhYISoDA9WfPtO-2" style="edgeStyle=orthogonalEdgeStyle;rounded=0;orthogonalLoop=1;jettySize=auto;html=1;dashed=1;endFill=0;endArrow=block;endSize=12;startFill=0;startArrow=none;startSize=12;" parent="1" source="A_9Sl46dPCUKxYy6Pm-M-7" target="A_9Sl46dPCUKxYy6Pm-M-48" edge="1">
          <mxGeometry relative="1" as="geometry">
            <mxPoint x="270" y="-400" as="targetPoint" />
            <Array as="points">
              <mxPoint y="120" />
              <mxPoint y="-425" />
            </Array>
          </mxGeometry>
        </mxCell>
        <mxCell id="A_9Sl46dPCUKxYy6Pm-M-7" value="&lt;&lt;Abstract&gt;&gt;&#xa;AsignableImpl" style="swimlane;fontStyle=0;childLayout=stackLayout;horizontal=1;startSize=26;fillColor=none;horizontalStack=0;resizeParent=1;resizeParentMax=0;resizeLast=0;collapsible=1;marginBottom=0;" parent="1" vertex="1">
          <mxGeometry x="20" y="110" width="220" height="216" as="geometry" />
        </mxCell>
        <mxCell id="A_9Sl46dPCUKxYy6Pm-M-11" value="-id: Long" style="text;strokeColor=none;fillColor=none;align=left;verticalAlign=top;spacingLeft=4;spacingRight=4;overflow=hidden;rotatable=0;points=[[0,0.5],[1,0.5]];portConstraint=eastwest;" parent="A_9Sl46dPCUKxYy6Pm-M-7" vertex="1">
          <mxGeometry y="26" width="220" height="26" as="geometry" />
        </mxCell>
        <mxCell id="_Y7coBUhYISoDA9WfPtO-4" value="- contacto: Contacto" style="text;strokeColor=none;fillColor=none;align=left;verticalAlign=top;spacingLeft=4;spacingRight=4;overflow=hidden;rotatable=0;points=[[0,0.5],[1,0.5]];portConstraint=eastwest;" parent="A_9Sl46dPCUKxYy6Pm-M-7" vertex="1">
          <mxGeometry y="52" width="220" height="26" as="geometry" />
        </mxCell>
        <mxCell id="_Y7coBUhYISoDA9WfPtO-3" value="- destino: Destino" style="text;strokeColor=none;fillColor=none;align=left;verticalAlign=top;spacingLeft=4;spacingRight=4;overflow=hidden;rotatable=0;points=[[0,0.5],[1,0.5]];portConstraint=eastwest;" parent="A_9Sl46dPCUKxYy6Pm-M-7" vertex="1">
          <mxGeometry y="78" width="220" height="26" as="geometry" />
        </mxCell>
        <mxCell id="A_9Sl46dPCUKxYy6Pm-M-14" value="" style="line;strokeWidth=1;fillColor=none;align=left;verticalAlign=middle;spacingTop=-1;spacingLeft=3;spacingRight=3;rotatable=0;labelPosition=right;points=[];portConstraint=eastwest;" parent="A_9Sl46dPCUKxYy6Pm-M-7" vertex="1">
          <mxGeometry y="104" width="220" height="8" as="geometry" />
        </mxCell>
        <mxCell id="A_9Sl46dPCUKxYy6Pm-M-12" value="+ getter():  Type" style="text;strokeColor=none;fillColor=none;align=left;verticalAlign=top;spacingLeft=4;spacingRight=4;overflow=hidden;rotatable=0;points=[[0,0.5],[1,0.5]];portConstraint=eastwest;" parent="A_9Sl46dPCUKxYy6Pm-M-7" vertex="1">
          <mxGeometry y="112" width="220" height="26" as="geometry" />
        </mxCell>
        <mxCell id="A_9Sl46dPCUKxYy6Pm-M-13" value="# setter(Type): void" style="text;strokeColor=none;fillColor=none;align=left;verticalAlign=top;spacingLeft=4;spacingRight=4;overflow=hidden;rotatable=0;points=[[0,0.5],[1,0.5]];portConstraint=eastwest;" parent="A_9Sl46dPCUKxYy6Pm-M-7" vertex="1">
          <mxGeometry y="138" width="220" height="26" as="geometry" />
        </mxCell>
        <mxCell id="A_9Sl46dPCUKxYy6Pm-M-15" value="+ Nombrable()" style="text;strokeColor=none;fillColor=none;align=left;verticalAlign=top;spacingLeft=4;spacingRight=4;overflow=hidden;rotatable=0;points=[[0,0.5],[1,0.5]];portConstraint=eastwest;" parent="A_9Sl46dPCUKxYy6Pm-M-7" vertex="1">
          <mxGeometry y="164" width="220" height="26" as="geometry" />
        </mxCell>
        <mxCell id="A_9Sl46dPCUKxYy6Pm-M-16" value="+ Nombrable(String, nombre, Poc)" style="text;strokeColor=none;fillColor=none;align=left;verticalAlign=top;spacingLeft=4;spacingRight=4;overflow=hidden;rotatable=0;points=[[0,0.5],[1,0.5]];portConstraint=eastwest;" parent="A_9Sl46dPCUKxYy6Pm-M-7" vertex="1">
          <mxGeometry y="190" width="220" height="26" as="geometry" />
        </mxCell>
        <mxCell id="A_9Sl46dPCUKxYy6Pm-M-36" value="&lt;&lt;Abstract&gt;&gt;&#xa;NombrableIdentificableImpl" style="swimlane;fontStyle=0;childLayout=stackLayout;horizontal=1;startSize=26;fillColor=none;horizontalStack=0;resizeParent=1;resizeParentMax=0;resizeLast=0;collapsible=1;marginBottom=0;" parent="1" vertex="1">
          <mxGeometry x="40" y="-340" width="220" height="190" as="geometry" />
        </mxCell>
        <mxCell id="A_9Sl46dPCUKxYy6Pm-M-37" value="- id: Long" style="text;strokeColor=none;fillColor=none;align=left;verticalAlign=top;spacingLeft=4;spacingRight=4;overflow=hidden;rotatable=0;points=[[0,0.5],[1,0.5]];portConstraint=eastwest;" parent="A_9Sl46dPCUKxYy6Pm-M-36" vertex="1">
          <mxGeometry y="26" width="220" height="26" as="geometry" />
        </mxCell>
        <mxCell id="A_9Sl46dPCUKxYy6Pm-M-38" value="- String: nombre" style="text;strokeColor=none;fillColor=none;align=left;verticalAlign=top;spacingLeft=4;spacingRight=4;overflow=hidden;rotatable=0;points=[[0,0.5],[1,0.5]];portConstraint=eastwest;" parent="A_9Sl46dPCUKxYy6Pm-M-36" vertex="1">
          <mxGeometry y="52" width="220" height="26" as="geometry" />
        </mxCell>
        <mxCell id="A_9Sl46dPCUKxYy6Pm-M-39" value="" style="line;strokeWidth=1;fillColor=none;align=left;verticalAlign=middle;spacingTop=-1;spacingLeft=3;spacingRight=3;rotatable=0;labelPosition=right;points=[];portConstraint=eastwest;" parent="A_9Sl46dPCUKxYy6Pm-M-36" vertex="1">
          <mxGeometry y="78" width="220" height="8" as="geometry" />
        </mxCell>
        <mxCell id="A_9Sl46dPCUKxYy6Pm-M-40" value="+ getter():  Type" style="text;strokeColor=none;fillColor=none;align=left;verticalAlign=top;spacingLeft=4;spacingRight=4;overflow=hidden;rotatable=0;points=[[0,0.5],[1,0.5]];portConstraint=eastwest;" parent="A_9Sl46dPCUKxYy6Pm-M-36" vertex="1">
          <mxGeometry y="86" width="220" height="26" as="geometry" />
        </mxCell>
        <mxCell id="A_9Sl46dPCUKxYy6Pm-M-41" value="# setter(Type): void" style="text;strokeColor=none;fillColor=none;align=left;verticalAlign=top;spacingLeft=4;spacingRight=4;overflow=hidden;rotatable=0;points=[[0,0.5],[1,0.5]];portConstraint=eastwest;" parent="A_9Sl46dPCUKxYy6Pm-M-36" vertex="1">
          <mxGeometry y="112" width="220" height="26" as="geometry" />
        </mxCell>
        <mxCell id="A_9Sl46dPCUKxYy6Pm-M-42" value="+ NombrableIdentificableImpl()" style="text;strokeColor=none;fillColor=none;align=left;verticalAlign=top;spacingLeft=4;spacingRight=4;overflow=hidden;rotatable=0;points=[[0,0.5],[1,0.5]];portConstraint=eastwest;" parent="A_9Sl46dPCUKxYy6Pm-M-36" vertex="1">
          <mxGeometry y="138" width="220" height="26" as="geometry" />
        </mxCell>
        <mxCell id="A_9Sl46dPCUKxYy6Pm-M-43" value="+ NombrableIdentificableImpl(String)" style="text;strokeColor=none;fillColor=none;align=left;verticalAlign=top;spacingLeft=4;spacingRight=4;overflow=hidden;rotatable=0;points=[[0,0.5],[1,0.5]];portConstraint=eastwest;" parent="A_9Sl46dPCUKxYy6Pm-M-36" vertex="1">
          <mxGeometry y="164" width="220" height="26" as="geometry" />
        </mxCell>
        <mxCell id="A_9Sl46dPCUKxYy6Pm-M-50" style="edgeStyle=orthogonalEdgeStyle;rounded=0;orthogonalLoop=1;jettySize=auto;html=1;exitX=0;exitY=0.5;exitDx=0;exitDy=0;startArrow=none;startFill=0;startSize=12;endArrow=block;endFill=0;endSize=12;dashed=1;" parent="1" source="A_9Sl46dPCUKxYy6Pm-M-48" target="MjNcdZxbZ1mCfYTZp8D7-5" edge="1">
          <mxGeometry relative="1" as="geometry">
            <mxPoint x="290" y="-569" as="targetPoint" />
            <Array as="points">
              <mxPoint x="280" y="-450" />
              <mxPoint x="240" y="-450" />
              <mxPoint x="240" y="-590" />
            </Array>
          </mxGeometry>
        </mxCell>
        <mxCell id="A_9Sl46dPCUKxYy6Pm-M-51" style="edgeStyle=orthogonalEdgeStyle;rounded=0;orthogonalLoop=1;jettySize=auto;html=1;exitX=0;exitY=0.5;exitDx=0;exitDy=0;startArrow=none;startFill=0;startSize=12;endArrow=block;endFill=0;endSize=12;dashed=1;" parent="1" source="A_9Sl46dPCUKxYy6Pm-M-48" target="MjNcdZxbZ1mCfYTZp8D7-1" edge="1">
          <mxGeometry relative="1" as="geometry">
            <mxPoint x="280" y="-617" as="targetPoint" />
            <Array as="points">
              <mxPoint x="280" y="-450" />
              <mxPoint x="240" y="-450" />
              <mxPoint x="240" y="-690" />
            </Array>
          </mxGeometry>
        </mxCell>
        <mxCell id="A_9Sl46dPCUKxYy6Pm-M-52" style="edgeStyle=orthogonalEdgeStyle;rounded=0;orthogonalLoop=1;jettySize=auto;html=1;exitX=0.5;exitY=1;exitDx=0;exitDy=0;entryX=0.455;entryY=0;entryDx=0;entryDy=0;entryPerimeter=0;dashed=1;startArrow=block;startFill=0;startSize=12;endArrow=none;endFill=0;endSize=12;" parent="1" source="A_9Sl46dPCUKxYy6Pm-M-48" target="A_9Sl46dPCUKxYy6Pm-M-36" edge="1">
          <mxGeometry relative="1" as="geometry" />
        </mxCell>
        <mxCell id="A_9Sl46dPCUKxYy6Pm-M-48" value="&lt;p style=&quot;margin: 0px ; margin-top: 4px ; text-align: center&quot;&gt;&lt;i&gt;&amp;lt;&amp;lt;Interface&amp;gt;&amp;gt;&lt;/i&gt;&lt;br&gt;&lt;b&gt;IdentificableNombrable&lt;/b&gt;&lt;/p&gt;&lt;hr size=&quot;1&quot;&gt;&lt;p style=&quot;margin: 0px ; margin-left: 4px&quot;&gt;&lt;br&gt;&lt;/p&gt;" style="verticalAlign=top;align=left;overflow=fill;fontSize=12;fontFamily=Helvetica;html=1;" parent="1" vertex="1">
          <mxGeometry x="280" y="-460" width="180" height="70" as="geometry" />
        </mxCell>
        <mxCell id="A_9Sl46dPCUKxYy6Pm-M-49" style="edgeStyle=none;rounded=0;orthogonalLoop=1;jettySize=auto;html=1;entryX=0.661;entryY=0;entryDx=0;entryDy=0;entryPerimeter=0;startArrow=block;startFill=0;startSize=12;endArrow=none;endFill=0;endSize=10;" parent="1" source="A_9Sl46dPCUKxYy6Pm-M-48" target="A_9Sl46dPCUKxYy6Pm-M-48" edge="1">
          <mxGeometry relative="1" as="geometry" />
        </mxCell>
        <mxCell id="A_9Sl46dPCUKxYy6Pm-M-61" style="edgeStyle=orthogonalEdgeStyle;rounded=0;orthogonalLoop=1;jettySize=auto;html=1;startArrow=none;startFill=0;startSize=12;endArrow=block;endFill=0;endSize=12;" parent="1" source="A_9Sl46dPCUKxYy6Pm-M-57" target="A_9Sl46dPCUKxYy6Pm-M-36" edge="1">
          <mxGeometry relative="1" as="geometry">
            <Array as="points">
              <mxPoint x="660" y="80" />
              <mxPoint x="150" y="80" />
            </Array>
          </mxGeometry>
        </mxCell>
        <mxCell id="A_9Sl46dPCUKxYy6Pm-M-57" value="Categoría" style="swimlane;fontStyle=0;childLayout=stackLayout;horizontal=1;startSize=26;fillColor=none;horizontalStack=0;resizeParent=1;resizeParentMax=0;resizeLast=0;collapsible=1;marginBottom=0;" parent="1" vertex="1">
          <mxGeometry x="610" y="101" width="140" height="164" as="geometry" />
        </mxCell>
        <mxCell id="A_9Sl46dPCUKxYy6Pm-M-64" value="-  nivel: String" style="text;strokeColor=none;fillColor=none;align=left;verticalAlign=top;spacingLeft=4;spacingRight=4;overflow=hidden;rotatable=0;points=[[0,0.5],[1,0.5]];portConstraint=eastwest;" parent="A_9Sl46dPCUKxYy6Pm-M-57" vertex="1">
          <mxGeometry y="26" width="140" height="26" as="geometry" />
        </mxCell>
        <mxCell id="A_9Sl46dPCUKxYy6Pm-M-128" value="" style="line;strokeWidth=1;fillColor=none;align=left;verticalAlign=middle;spacingTop=-1;spacingLeft=3;spacingRight=3;rotatable=0;labelPosition=right;points=[];portConstraint=eastwest;" parent="A_9Sl46dPCUKxYy6Pm-M-57" vertex="1">
          <mxGeometry y="52" width="140" height="8" as="geometry" />
        </mxCell>
        <mxCell id="A_9Sl46dPCUKxYy6Pm-M-129" value="+ getter():  Type" style="text;strokeColor=none;fillColor=none;align=left;verticalAlign=top;spacingLeft=4;spacingRight=4;overflow=hidden;rotatable=0;points=[[0,0.5],[1,0.5]];portConstraint=eastwest;" parent="A_9Sl46dPCUKxYy6Pm-M-57" vertex="1">
          <mxGeometry y="60" width="140" height="26" as="geometry" />
        </mxCell>
        <mxCell id="A_9Sl46dPCUKxYy6Pm-M-130" value="# setter(Type): void" style="text;strokeColor=none;fillColor=none;align=left;verticalAlign=top;spacingLeft=4;spacingRight=4;overflow=hidden;rotatable=0;points=[[0,0.5],[1,0.5]];portConstraint=eastwest;" parent="A_9Sl46dPCUKxYy6Pm-M-57" vertex="1">
          <mxGeometry y="86" width="140" height="26" as="geometry" />
        </mxCell>
        <mxCell id="A_9Sl46dPCUKxYy6Pm-M-131" value="+ Categoria()" style="text;strokeColor=none;fillColor=none;align=left;verticalAlign=top;spacingLeft=4;spacingRight=4;overflow=hidden;rotatable=0;points=[[0,0.5],[1,0.5]];portConstraint=eastwest;" parent="A_9Sl46dPCUKxYy6Pm-M-57" vertex="1">
          <mxGeometry y="112" width="140" height="26" as="geometry" />
        </mxCell>
        <mxCell id="A_9Sl46dPCUKxYy6Pm-M-132" value="+ Categoria(Type)" style="text;strokeColor=none;fillColor=none;align=left;verticalAlign=top;spacingLeft=4;spacingRight=4;overflow=hidden;rotatable=0;points=[[0,0.5],[1,0.5]];portConstraint=eastwest;" parent="A_9Sl46dPCUKxYy6Pm-M-57" vertex="1">
          <mxGeometry y="138" width="140" height="26" as="geometry" />
        </mxCell>
        <mxCell id="A_9Sl46dPCUKxYy6Pm-M-68" style="edgeStyle=orthogonalEdgeStyle;rounded=0;orthogonalLoop=1;jettySize=auto;html=1;startArrow=none;startFill=0;startSize=12;endArrow=block;endFill=0;endSize=12;" parent="1" source="A_9Sl46dPCUKxYy6Pm-M-66" target="A_9Sl46dPCUKxYy6Pm-M-36" edge="1">
          <mxGeometry relative="1" as="geometry">
            <Array as="points">
              <mxPoint x="880" y="80" />
              <mxPoint x="150" y="80" />
            </Array>
          </mxGeometry>
        </mxCell>
        <mxCell id="A_9Sl46dPCUKxYy6Pm-M-66" value="Destino" style="swimlane;fontStyle=0;childLayout=stackLayout;horizontal=1;startSize=26;fillColor=none;horizontalStack=0;resizeParent=1;resizeParentMax=0;resizeLast=0;collapsible=1;marginBottom=0;" parent="1" vertex="1">
          <mxGeometry x="800" y="100" width="170" height="216" as="geometry" />
        </mxCell>
        <mxCell id="A_9Sl46dPCUKxYy6Pm-M-67" value="-  direccion: Direccion" style="text;strokeColor=none;fillColor=none;align=left;verticalAlign=top;spacingLeft=4;spacingRight=4;overflow=hidden;rotatable=0;points=[[0,0.5],[1,0.5]];portConstraint=eastwest;" parent="A_9Sl46dPCUKxYy6Pm-M-66" vertex="1">
          <mxGeometry y="26" width="170" height="26" as="geometry" />
        </mxCell>
        <mxCell id="A_9Sl46dPCUKxYy6Pm-M-109" value="-  departamento: String" style="text;strokeColor=none;fillColor=none;align=left;verticalAlign=top;spacingLeft=4;spacingRight=4;overflow=hidden;rotatable=0;points=[[0,0.5],[1,0.5]];portConstraint=eastwest;" parent="A_9Sl46dPCUKxYy6Pm-M-66" vertex="1">
          <mxGeometry y="52" width="170" height="26" as="geometry" />
        </mxCell>
        <mxCell id="A_9Sl46dPCUKxYy6Pm-M-110" value="-  organismo: Organismo" style="text;strokeColor=none;fillColor=none;align=left;verticalAlign=top;spacingLeft=4;spacingRight=4;overflow=hidden;rotatable=0;points=[[0,0.5],[1,0.5]];portConstraint=eastwest;" parent="A_9Sl46dPCUKxYy6Pm-M-66" vertex="1">
          <mxGeometry y="78" width="170" height="26" as="geometry" />
        </mxCell>
        <mxCell id="A_9Sl46dPCUKxYy6Pm-M-69" value="" style="line;strokeWidth=1;fillColor=none;align=left;verticalAlign=middle;spacingTop=-1;spacingLeft=3;spacingRight=3;rotatable=0;labelPosition=right;points=[];portConstraint=eastwest;" parent="A_9Sl46dPCUKxYy6Pm-M-66" vertex="1">
          <mxGeometry y="104" width="170" height="8" as="geometry" />
        </mxCell>
        <mxCell id="A_9Sl46dPCUKxYy6Pm-M-70" value="+ getter():  Type" style="text;strokeColor=none;fillColor=none;align=left;verticalAlign=top;spacingLeft=4;spacingRight=4;overflow=hidden;rotatable=0;points=[[0,0.5],[1,0.5]];portConstraint=eastwest;" parent="A_9Sl46dPCUKxYy6Pm-M-66" vertex="1">
          <mxGeometry y="112" width="170" height="26" as="geometry" />
        </mxCell>
        <mxCell id="A_9Sl46dPCUKxYy6Pm-M-71" value="# setter(Type): void" style="text;strokeColor=none;fillColor=none;align=left;verticalAlign=top;spacingLeft=4;spacingRight=4;overflow=hidden;rotatable=0;points=[[0,0.5],[1,0.5]];portConstraint=eastwest;" parent="A_9Sl46dPCUKxYy6Pm-M-66" vertex="1">
          <mxGeometry y="138" width="170" height="26" as="geometry" />
        </mxCell>
        <mxCell id="A_9Sl46dPCUKxYy6Pm-M-72" value="+ Destino()" style="text;strokeColor=none;fillColor=none;align=left;verticalAlign=top;spacingLeft=4;spacingRight=4;overflow=hidden;rotatable=0;points=[[0,0.5],[1,0.5]];portConstraint=eastwest;" parent="A_9Sl46dPCUKxYy6Pm-M-66" vertex="1">
          <mxGeometry y="164" width="170" height="26" as="geometry" />
        </mxCell>
        <mxCell id="A_9Sl46dPCUKxYy6Pm-M-127" value="+ Destino(Type)" style="text;strokeColor=none;fillColor=none;align=left;verticalAlign=top;spacingLeft=4;spacingRight=4;overflow=hidden;rotatable=0;points=[[0,0.5],[1,0.5]];portConstraint=eastwest;" parent="A_9Sl46dPCUKxYy6Pm-M-66" vertex="1">
          <mxGeometry y="190" width="170" height="26" as="geometry" />
        </mxCell>
        <mxCell id="A_9Sl46dPCUKxYy6Pm-M-90" style="edgeStyle=orthogonalEdgeStyle;rounded=0;orthogonalLoop=1;jettySize=auto;html=1;exitX=0.5;exitY=0;exitDx=0;exitDy=0;startArrow=none;startFill=0;startSize=12;endArrow=block;endFill=0;endSize=12;" parent="1" source="A_9Sl46dPCUKxYy6Pm-M-74" target="A_9Sl46dPCUKxYy6Pm-M-7" edge="1">
          <mxGeometry relative="1" as="geometry">
            <Array as="points">
              <mxPoint x="-150" y="360" />
              <mxPoint x="140" y="360" />
            </Array>
          </mxGeometry>
        </mxCell>
        <mxCell id="A_9Sl46dPCUKxYy6Pm-M-74" value="&lt;&lt;Abstract&gt;&gt;&#xa;Persona" style="swimlane;fontStyle=0;childLayout=stackLayout;horizontal=1;startSize=26;fillColor=none;horizontalStack=0;resizeParent=1;resizeParentMax=0;resizeLast=0;collapsible=1;marginBottom=0;" parent="1" vertex="1">
          <mxGeometry x="-220" y="390" width="140" height="240" as="geometry" />
        </mxCell>
        <mxCell id="A_9Sl46dPCUKxYy6Pm-M-77" value="- categoria: Categoria" style="text;strokeColor=none;fillColor=none;align=left;verticalAlign=top;spacingLeft=4;spacingRight=4;overflow=hidden;rotatable=0;points=[[0,0.5],[1,0.5]];portConstraint=eastwest;" parent="A_9Sl46dPCUKxYy6Pm-M-74" vertex="1">
          <mxGeometry y="26" width="140" height="26" as="geometry" />
        </mxCell>
        <mxCell id="A_9Sl46dPCUKxYy6Pm-M-93" value="- nif: String" style="text;strokeColor=none;fillColor=none;align=left;verticalAlign=top;spacingLeft=4;spacingRight=4;overflow=hidden;rotatable=0;points=[[0,0.5],[1,0.5]];portConstraint=eastwest;" parent="A_9Sl46dPCUKxYy6Pm-M-74" vertex="1">
          <mxGeometry y="52" width="140" height="26" as="geometry" />
        </mxCell>
        <mxCell id="A_9Sl46dPCUKxYy6Pm-M-75" value="- apellido1:String" style="text;strokeColor=none;fillColor=none;align=left;verticalAlign=top;spacingLeft=4;spacingRight=4;overflow=hidden;rotatable=0;points=[[0,0.5],[1,0.5]];portConstraint=eastwest;" parent="A_9Sl46dPCUKxYy6Pm-M-74" vertex="1">
          <mxGeometry y="78" width="140" height="26" as="geometry" />
        </mxCell>
        <mxCell id="A_9Sl46dPCUKxYy6Pm-M-76" value="- apellido2: String" style="text;strokeColor=none;fillColor=none;align=left;verticalAlign=top;spacingLeft=4;spacingRight=4;overflow=hidden;rotatable=0;points=[[0,0.5],[1,0.5]];portConstraint=eastwest;" parent="A_9Sl46dPCUKxYy6Pm-M-74" vertex="1">
          <mxGeometry y="104" width="140" height="26" as="geometry" />
        </mxCell>
        <mxCell id="A_9Sl46dPCUKxYy6Pm-M-104" value="" style="line;strokeWidth=1;fillColor=none;align=left;verticalAlign=middle;spacingTop=-1;spacingLeft=3;spacingRight=3;rotatable=0;labelPosition=right;points=[];portConstraint=eastwest;" parent="A_9Sl46dPCUKxYy6Pm-M-74" vertex="1">
          <mxGeometry y="130" width="140" height="8" as="geometry" />
        </mxCell>
        <mxCell id="A_9Sl46dPCUKxYy6Pm-M-105" value="+ getter():  Type" style="text;strokeColor=none;fillColor=none;align=left;verticalAlign=top;spacingLeft=4;spacingRight=4;overflow=hidden;rotatable=0;points=[[0,0.5],[1,0.5]];portConstraint=eastwest;" parent="A_9Sl46dPCUKxYy6Pm-M-74" vertex="1">
          <mxGeometry y="138" width="140" height="24" as="geometry" />
        </mxCell>
        <mxCell id="A_9Sl46dPCUKxYy6Pm-M-106" value="# setter(Type): void" style="text;strokeColor=none;fillColor=none;align=left;verticalAlign=top;spacingLeft=4;spacingRight=4;overflow=hidden;rotatable=0;points=[[0,0.5],[1,0.5]];portConstraint=eastwest;" parent="A_9Sl46dPCUKxYy6Pm-M-74" vertex="1">
          <mxGeometry y="162" width="140" height="26" as="geometry" />
        </mxCell>
        <mxCell id="A_9Sl46dPCUKxYy6Pm-M-107" value="+ Persona ()" style="text;strokeColor=none;fillColor=none;align=left;verticalAlign=top;spacingLeft=4;spacingRight=4;overflow=hidden;rotatable=0;points=[[0,0.5],[1,0.5]];portConstraint=eastwest;" parent="A_9Sl46dPCUKxYy6Pm-M-74" vertex="1">
          <mxGeometry y="188" width="140" height="26" as="geometry" />
        </mxCell>
        <mxCell id="A_9Sl46dPCUKxYy6Pm-M-108" value="+ Persona (Type)" style="text;strokeColor=none;fillColor=none;align=left;verticalAlign=top;spacingLeft=4;spacingRight=4;overflow=hidden;rotatable=0;points=[[0,0.5],[1,0.5]];portConstraint=eastwest;" parent="A_9Sl46dPCUKxYy6Pm-M-74" vertex="1">
          <mxGeometry y="214" width="140" height="26" as="geometry" />
        </mxCell>
        <mxCell id="A_9Sl46dPCUKxYy6Pm-M-91" style="edgeStyle=orthogonalEdgeStyle;rounded=0;orthogonalLoop=1;jettySize=auto;html=1;exitX=0.5;exitY=0;exitDx=0;exitDy=0;startArrow=none;startFill=0;startSize=12;endArrow=block;endFill=0;endSize=12;" parent="1" source="A_9Sl46dPCUKxYy6Pm-M-82" target="A_9Sl46dPCUKxYy6Pm-M-7" edge="1">
          <mxGeometry relative="1" as="geometry">
            <Array as="points">
              <mxPoint x="290" y="360" />
              <mxPoint x="140" y="360" />
            </Array>
          </mxGeometry>
        </mxCell>
        <mxCell id="A_9Sl46dPCUKxYy6Pm-M-82" value="NoPersona" style="swimlane;fontStyle=0;childLayout=stackLayout;horizontal=1;startSize=26;fillColor=none;horizontalStack=0;resizeParent=1;resizeParentMax=0;resizeLast=0;collapsible=1;marginBottom=0;" parent="1" vertex="1">
          <mxGeometry x="220" y="390" width="140" height="188" as="geometry" />
        </mxCell>
        <mxCell id="A_9Sl46dPCUKxYy6Pm-M-83" value="- identificador: String" style="text;strokeColor=none;fillColor=none;align=left;verticalAlign=top;spacingLeft=4;spacingRight=4;overflow=hidden;rotatable=0;points=[[0,0.5],[1,0.5]];portConstraint=eastwest;" parent="A_9Sl46dPCUKxYy6Pm-M-82" vertex="1">
          <mxGeometry y="26" width="140" height="26" as="geometry" />
        </mxCell>
        <mxCell id="A_9Sl46dPCUKxYy6Pm-M-85" value="- estado: Estado" style="text;strokeColor=none;fillColor=none;align=left;verticalAlign=top;spacingLeft=4;spacingRight=4;overflow=hidden;rotatable=0;points=[[0,0.5],[1,0.5]];portConstraint=eastwest;" parent="A_9Sl46dPCUKxYy6Pm-M-82" vertex="1">
          <mxGeometry y="52" width="140" height="26" as="geometry" />
        </mxCell>
        <mxCell id="A_9Sl46dPCUKxYy6Pm-M-111" value="" style="line;strokeWidth=1;fillColor=none;align=left;verticalAlign=middle;spacingTop=-1;spacingLeft=3;spacingRight=3;rotatable=0;labelPosition=right;points=[];portConstraint=eastwest;" parent="A_9Sl46dPCUKxYy6Pm-M-82" vertex="1">
          <mxGeometry y="78" width="140" height="8" as="geometry" />
        </mxCell>
        <mxCell id="A_9Sl46dPCUKxYy6Pm-M-112" value="+ getter():  Type" style="text;strokeColor=none;fillColor=none;align=left;verticalAlign=top;spacingLeft=4;spacingRight=4;overflow=hidden;rotatable=0;points=[[0,0.5],[1,0.5]];portConstraint=eastwest;" parent="A_9Sl46dPCUKxYy6Pm-M-82" vertex="1">
          <mxGeometry y="86" width="140" height="24" as="geometry" />
        </mxCell>
        <mxCell id="A_9Sl46dPCUKxYy6Pm-M-113" value="# setter(Type): void" style="text;strokeColor=none;fillColor=none;align=left;verticalAlign=top;spacingLeft=4;spacingRight=4;overflow=hidden;rotatable=0;points=[[0,0.5],[1,0.5]];portConstraint=eastwest;" parent="A_9Sl46dPCUKxYy6Pm-M-82" vertex="1">
          <mxGeometry y="110" width="140" height="26" as="geometry" />
        </mxCell>
        <mxCell id="A_9Sl46dPCUKxYy6Pm-M-114" value="+ NoPersona ()" style="text;strokeColor=none;fillColor=none;align=left;verticalAlign=top;spacingLeft=4;spacingRight=4;overflow=hidden;rotatable=0;points=[[0,0.5],[1,0.5]];portConstraint=eastwest;" parent="A_9Sl46dPCUKxYy6Pm-M-82" vertex="1">
          <mxGeometry y="136" width="140" height="26" as="geometry" />
        </mxCell>
        <mxCell id="A_9Sl46dPCUKxYy6Pm-M-115" value="+ NoPersona (Type)" style="text;strokeColor=none;fillColor=none;align=left;verticalAlign=top;spacingLeft=4;spacingRight=4;overflow=hidden;rotatable=0;points=[[0,0.5],[1,0.5]];portConstraint=eastwest;" parent="A_9Sl46dPCUKxYy6Pm-M-82" vertex="1">
          <mxGeometry y="162" width="140" height="26" as="geometry" />
        </mxCell>
        <mxCell id="A_9Sl46dPCUKxYy6Pm-M-120" style="edgeStyle=orthogonalEdgeStyle;rounded=0;orthogonalLoop=1;jettySize=auto;html=1;exitX=0.5;exitY=0;exitDx=0;exitDy=0;startArrow=none;startFill=0;startSize=12;endArrow=block;endFill=0;endSize=12;" parent="1" source="A_9Sl46dPCUKxYy6Pm-M-116" target="A_9Sl46dPCUKxYy6Pm-M-74" edge="1">
          <mxGeometry relative="1" as="geometry">
            <Array as="points">
              <mxPoint x="-395" y="760" />
              <mxPoint x="-150" y="760" />
            </Array>
          </mxGeometry>
        </mxCell>
        <mxCell id="A_9Sl46dPCUKxYy6Pm-M-116" value="PersonaJerarquizada" style="swimlane;fontStyle=0;childLayout=stackLayout;horizontal=1;startSize=26;fillColor=none;horizontalStack=0;resizeParent=1;resizeParentMax=0;resizeLast=0;collapsible=1;marginBottom=0;" parent="1" vertex="1">
          <mxGeometry x="-480" y="780" width="170" height="104" as="geometry" />
        </mxCell>
        <mxCell id="A_9Sl46dPCUKxYy6Pm-M-117" value="- empleo: Categoria" style="text;strokeColor=none;fillColor=none;align=left;verticalAlign=top;spacingLeft=4;spacingRight=4;overflow=hidden;rotatable=0;points=[[0,0.5],[1,0.5]];portConstraint=eastwest;" parent="A_9Sl46dPCUKxYy6Pm-M-116" vertex="1">
          <mxGeometry y="26" width="170" height="26" as="geometry" />
        </mxCell>
        <mxCell id="A_9Sl46dPCUKxYy6Pm-M-118" value="- escalafon: Long" style="text;strokeColor=none;fillColor=none;align=left;verticalAlign=top;spacingLeft=4;spacingRight=4;overflow=hidden;rotatable=0;points=[[0,0.5],[1,0.5]];portConstraint=eastwest;" parent="A_9Sl46dPCUKxYy6Pm-M-116" vertex="1">
          <mxGeometry y="52" width="170" height="26" as="geometry" />
        </mxCell>
        <mxCell id="A_9Sl46dPCUKxYy6Pm-M-119" value="- fechaAntiguedad: Calendar" style="text;strokeColor=none;fillColor=none;align=left;verticalAlign=top;spacingLeft=4;spacingRight=4;overflow=hidden;rotatable=0;points=[[0,0.5],[1,0.5]];portConstraint=eastwest;" parent="A_9Sl46dPCUKxYy6Pm-M-116" vertex="1">
          <mxGeometry y="78" width="170" height="26" as="geometry" />
        </mxCell>
        <mxCell id="A_9Sl46dPCUKxYy6Pm-M-121" value="&lt;&lt;Enum&gt;&gt;&#xa;Operatividad" style="swimlane;fontStyle=0;childLayout=stackLayout;horizontal=1;startSize=26;fillColor=none;horizontalStack=0;resizeParent=1;resizeParentMax=0;resizeLast=0;collapsible=1;marginBottom=0;" parent="1" vertex="1">
          <mxGeometry x="-300" y="1030" width="190" height="130" as="geometry" />
        </mxCell>
        <mxCell id="A_9Sl46dPCUKxYy6Pm-M-122" value="OPERATIVO," style="text;strokeColor=none;fillColor=none;align=left;verticalAlign=top;spacingLeft=4;spacingRight=4;overflow=hidden;rotatable=0;points=[[0,0.5],[1,0.5]];portConstraint=eastwest;" parent="A_9Sl46dPCUKxYy6Pm-M-121" vertex="1">
          <mxGeometry y="26" width="190" height="26" as="geometry" />
        </mxCell>
        <mxCell id="A_9Sl46dPCUKxYy6Pm-M-123" value="NOOPERATIVO," style="text;strokeColor=none;fillColor=none;align=left;verticalAlign=top;spacingLeft=4;spacingRight=4;overflow=hidden;rotatable=0;points=[[0,0.5],[1,0.5]];portConstraint=eastwest;" parent="A_9Sl46dPCUKxYy6Pm-M-121" vertex="1">
          <mxGeometry y="52" width="190" height="26" as="geometry" />
        </mxCell>
        <mxCell id="A_9Sl46dPCUKxYy6Pm-M-124" value="OPERATIVOCONDICIONAL," style="text;strokeColor=none;fillColor=none;align=left;verticalAlign=top;spacingLeft=4;spacingRight=4;overflow=hidden;rotatable=0;points=[[0,0.5],[1,0.5]];portConstraint=eastwest;" parent="A_9Sl46dPCUKxYy6Pm-M-121" vertex="1">
          <mxGeometry y="78" width="190" height="26" as="geometry" />
        </mxCell>
        <mxCell id="A_9Sl46dPCUKxYy6Pm-M-125" value="OPERATIVOCONLIMITACIONES" style="text;strokeColor=none;fillColor=none;align=left;verticalAlign=top;spacingLeft=4;spacingRight=4;overflow=hidden;rotatable=0;points=[[0,0.5],[1,0.5]];portConstraint=eastwest;" parent="A_9Sl46dPCUKxYy6Pm-M-121" vertex="1">
          <mxGeometry y="104" width="190" height="26" as="geometry" />
        </mxCell>
        <mxCell id="A_9Sl46dPCUKxYy6Pm-M-144" style="edgeStyle=orthogonalEdgeStyle;rounded=0;orthogonalLoop=1;jettySize=auto;html=1;exitX=0.5;exitY=0;exitDx=0;exitDy=0;startArrow=none;startFill=0;startSize=12;endArrow=block;endFill=0;endSize=12;" parent="1" source="A_9Sl46dPCUKxYy6Pm-M-134" target="A_9Sl46dPCUKxYy6Pm-M-36" edge="1">
          <mxGeometry relative="1" as="geometry">
            <Array as="points">
              <mxPoint x="1090" y="100" />
              <mxPoint x="1090" y="80" />
              <mxPoint x="150" y="80" />
            </Array>
          </mxGeometry>
        </mxCell>
        <mxCell id="A_9Sl46dPCUKxYy6Pm-M-134" value="Organismo" style="swimlane;fontStyle=0;childLayout=stackLayout;horizontal=1;startSize=26;fillColor=none;horizontalStack=0;resizeParent=1;resizeParentMax=0;resizeLast=0;collapsible=1;marginBottom=0;" parent="1" vertex="1">
          <mxGeometry x="1040" y="100" width="140" height="216" as="geometry" />
        </mxCell>
        <mxCell id="A_9Sl46dPCUKxYy6Pm-M-135" value="-  acronimo: String" style="text;strokeColor=none;fillColor=none;align=left;verticalAlign=top;spacingLeft=4;spacingRight=4;overflow=hidden;rotatable=0;points=[[0,0.5],[1,0.5]];portConstraint=eastwest;" parent="A_9Sl46dPCUKxYy6Pm-M-134" vertex="1">
          <mxGeometry y="26" width="140" height="26" as="geometry" />
        </mxCell>
        <mxCell id="A_9Sl46dPCUKxYy6Pm-M-137" value="- entidad: String" style="text;strokeColor=none;fillColor=none;align=left;verticalAlign=top;spacingLeft=4;spacingRight=4;overflow=hidden;rotatable=0;points=[[0,0.5],[1,0.5]];portConstraint=eastwest;" parent="A_9Sl46dPCUKxYy6Pm-M-134" vertex="1">
          <mxGeometry y="52" width="140" height="26" as="geometry" />
        </mxCell>
        <mxCell id="A_9Sl46dPCUKxYy6Pm-M-138" value="- pais: Pais" style="text;strokeColor=none;fillColor=none;align=left;verticalAlign=top;spacingLeft=4;spacingRight=4;overflow=hidden;rotatable=0;points=[[0,0.5],[1,0.5]];portConstraint=eastwest;" parent="A_9Sl46dPCUKxYy6Pm-M-134" vertex="1">
          <mxGeometry y="78" width="140" height="26" as="geometry" />
        </mxCell>
        <mxCell id="A_9Sl46dPCUKxYy6Pm-M-139" value="" style="line;strokeWidth=1;fillColor=none;align=left;verticalAlign=middle;spacingTop=-1;spacingLeft=3;spacingRight=3;rotatable=0;labelPosition=right;points=[];portConstraint=eastwest;" parent="A_9Sl46dPCUKxYy6Pm-M-134" vertex="1">
          <mxGeometry y="104" width="140" height="8" as="geometry" />
        </mxCell>
        <mxCell id="A_9Sl46dPCUKxYy6Pm-M-140" value="+ getter():  Type" style="text;strokeColor=none;fillColor=none;align=left;verticalAlign=top;spacingLeft=4;spacingRight=4;overflow=hidden;rotatable=0;points=[[0,0.5],[1,0.5]];portConstraint=eastwest;" parent="A_9Sl46dPCUKxYy6Pm-M-134" vertex="1">
          <mxGeometry y="112" width="140" height="26" as="geometry" />
        </mxCell>
        <mxCell id="A_9Sl46dPCUKxYy6Pm-M-141" value="# setter(Type): void" style="text;strokeColor=none;fillColor=none;align=left;verticalAlign=top;spacingLeft=4;spacingRight=4;overflow=hidden;rotatable=0;points=[[0,0.5],[1,0.5]];portConstraint=eastwest;" parent="A_9Sl46dPCUKxYy6Pm-M-134" vertex="1">
          <mxGeometry y="138" width="140" height="26" as="geometry" />
        </mxCell>
        <mxCell id="A_9Sl46dPCUKxYy6Pm-M-142" value="+ Organismo()" style="text;strokeColor=none;fillColor=none;align=left;verticalAlign=top;spacingLeft=4;spacingRight=4;overflow=hidden;rotatable=0;points=[[0,0.5],[1,0.5]];portConstraint=eastwest;" parent="A_9Sl46dPCUKxYy6Pm-M-134" vertex="1">
          <mxGeometry y="164" width="140" height="26" as="geometry" />
        </mxCell>
        <mxCell id="A_9Sl46dPCUKxYy6Pm-M-143" value="+ Organismo(Type)" style="text;strokeColor=none;fillColor=none;align=left;verticalAlign=top;spacingLeft=4;spacingRight=4;overflow=hidden;rotatable=0;points=[[0,0.5],[1,0.5]];portConstraint=eastwest;" parent="A_9Sl46dPCUKxYy6Pm-M-134" vertex="1">
          <mxGeometry y="190" width="140" height="26" as="geometry" />
        </mxCell>
        <mxCell id="A_9Sl46dPCUKxYy6Pm-M-149" value="Direccion" style="swimlane;fontStyle=0;childLayout=stackLayout;horizontal=1;startSize=26;fillColor=none;horizontalStack=0;resizeParent=1;resizeParentMax=0;resizeLast=0;collapsible=1;marginBottom=0;" parent="1" vertex="1">
          <mxGeometry x="1220" y="100" width="140" height="216" as="geometry" />
        </mxCell>
        <mxCell id="A_9Sl46dPCUKxYy6Pm-M-150" value="-  numero: String" style="text;strokeColor=none;fillColor=none;align=left;verticalAlign=top;spacingLeft=4;spacingRight=4;overflow=hidden;rotatable=0;points=[[0,0.5],[1,0.5]];portConstraint=eastwest;" parent="A_9Sl46dPCUKxYy6Pm-M-149" vertex="1">
          <mxGeometry y="26" width="140" height="26" as="geometry" />
        </mxCell>
        <mxCell id="A_9Sl46dPCUKxYy6Pm-M-151" value="- codigoPostal: int" style="text;strokeColor=none;fillColor=none;align=left;verticalAlign=top;spacingLeft=4;spacingRight=4;overflow=hidden;rotatable=0;points=[[0,0.5],[1,0.5]];portConstraint=eastwest;" parent="A_9Sl46dPCUKxYy6Pm-M-149" vertex="1">
          <mxGeometry y="52" width="140" height="26" as="geometry" />
        </mxCell>
        <mxCell id="A_9Sl46dPCUKxYy6Pm-M-153" value="- pais: Pais" style="text;strokeColor=none;fillColor=none;align=left;verticalAlign=top;spacingLeft=4;spacingRight=4;overflow=hidden;rotatable=0;points=[[0,0.5],[1,0.5]];portConstraint=eastwest;" parent="A_9Sl46dPCUKxYy6Pm-M-149" vertex="1">
          <mxGeometry y="78" width="140" height="26" as="geometry" />
        </mxCell>
        <mxCell id="A_9Sl46dPCUKxYy6Pm-M-154" value="" style="line;strokeWidth=1;fillColor=none;align=left;verticalAlign=middle;spacingTop=-1;spacingLeft=3;spacingRight=3;rotatable=0;labelPosition=right;points=[];portConstraint=eastwest;" parent="A_9Sl46dPCUKxYy6Pm-M-149" vertex="1">
          <mxGeometry y="104" width="140" height="8" as="geometry" />
        </mxCell>
        <mxCell id="A_9Sl46dPCUKxYy6Pm-M-155" value="+ getter():  Type" style="text;strokeColor=none;fillColor=none;align=left;verticalAlign=top;spacingLeft=4;spacingRight=4;overflow=hidden;rotatable=0;points=[[0,0.5],[1,0.5]];portConstraint=eastwest;" parent="A_9Sl46dPCUKxYy6Pm-M-149" vertex="1">
          <mxGeometry y="112" width="140" height="26" as="geometry" />
        </mxCell>
        <mxCell id="A_9Sl46dPCUKxYy6Pm-M-156" value="# setter(Type): void" style="text;strokeColor=none;fillColor=none;align=left;verticalAlign=top;spacingLeft=4;spacingRight=4;overflow=hidden;rotatable=0;points=[[0,0.5],[1,0.5]];portConstraint=eastwest;" parent="A_9Sl46dPCUKxYy6Pm-M-149" vertex="1">
          <mxGeometry y="138" width="140" height="26" as="geometry" />
        </mxCell>
        <mxCell id="A_9Sl46dPCUKxYy6Pm-M-158" value="+ Direccion()" style="text;strokeColor=none;fillColor=none;align=left;verticalAlign=top;spacingLeft=4;spacingRight=4;overflow=hidden;rotatable=0;points=[[0,0.5],[1,0.5]];portConstraint=eastwest;" parent="A_9Sl46dPCUKxYy6Pm-M-149" vertex="1">
          <mxGeometry y="164" width="140" height="26" as="geometry" />
        </mxCell>
        <mxCell id="A_9Sl46dPCUKxYy6Pm-M-157" value="+ Direccion(Type)" style="text;strokeColor=none;fillColor=none;align=left;verticalAlign=top;spacingLeft=4;spacingRight=4;overflow=hidden;rotatable=0;points=[[0,0.5],[1,0.5]];portConstraint=eastwest;" parent="A_9Sl46dPCUKxYy6Pm-M-149" vertex="1">
          <mxGeometry y="190" width="140" height="26" as="geometry" />
        </mxCell>
        <mxCell id="A_9Sl46dPCUKxYy6Pm-M-164" style="edgeStyle=orthogonalEdgeStyle;rounded=0;orthogonalLoop=1;jettySize=auto;html=1;startArrow=none;startFill=0;startSize=12;endArrow=block;endFill=0;endSize=12;entryX=0.684;entryY=1.103;entryDx=0;entryDy=0;entryPerimeter=0;" parent="1" source="A_9Sl46dPCUKxYy6Pm-M-160" target="A_9Sl46dPCUKxYy6Pm-M-43" edge="1">
          <mxGeometry relative="1" as="geometry">
            <Array as="points">
              <mxPoint x="191" y="-100" />
            </Array>
          </mxGeometry>
        </mxCell>
        <mxCell id="A_9Sl46dPCUKxYy6Pm-M-160" value="Servicio" style="swimlane;fontStyle=0;childLayout=stackLayout;horizontal=1;startSize=26;fillColor=none;horizontalStack=0;resizeParent=1;resizeParentMax=0;resizeLast=0;collapsible=1;marginBottom=0;" parent="1" vertex="1">
          <mxGeometry x="360" y="-340" width="160" height="214" as="geometry" />
        </mxCell>
        <mxCell id="A_9Sl46dPCUKxYy6Pm-M-168" value="- tipoServico: TipoServico" style="text;strokeColor=none;fillColor=none;align=left;verticalAlign=top;spacingLeft=4;spacingRight=4;overflow=hidden;rotatable=0;points=[[0,0.5],[1,0.5]];portConstraint=eastwest;" parent="A_9Sl46dPCUKxYy6Pm-M-160" vertex="1">
          <mxGeometry y="26" width="160" height="26" as="geometry" />
        </mxCell>
        <mxCell id="A_9Sl46dPCUKxYy6Pm-M-161" value="- duracion: instant" style="text;strokeColor=none;fillColor=none;align=left;verticalAlign=top;spacingLeft=4;spacingRight=4;overflow=hidden;rotatable=0;points=[[0,0.5],[1,0.5]];portConstraint=eastwest;" parent="A_9Sl46dPCUKxYy6Pm-M-160" vertex="1">
          <mxGeometry y="52" width="160" height="26" as="geometry" />
        </mxCell>
        <mxCell id="A_9Sl46dPCUKxYy6Pm-M-162" value="- generaDescanso : boolean" style="text;strokeColor=none;fillColor=none;align=left;verticalAlign=top;spacingLeft=4;spacingRight=4;overflow=hidden;rotatable=0;points=[[0,0.5],[1,0.5]];portConstraint=eastwest;" parent="A_9Sl46dPCUKxYy6Pm-M-160" vertex="1">
          <mxGeometry y="78" width="160" height="26" as="geometry" />
        </mxCell>
        <mxCell id="A_9Sl46dPCUKxYy6Pm-M-169" value="" style="line;strokeWidth=1;fillColor=none;align=left;verticalAlign=middle;spacingTop=-1;spacingLeft=3;spacingRight=3;rotatable=0;labelPosition=right;points=[];portConstraint=eastwest;" parent="A_9Sl46dPCUKxYy6Pm-M-160" vertex="1">
          <mxGeometry y="104" width="160" height="8" as="geometry" />
        </mxCell>
        <mxCell id="A_9Sl46dPCUKxYy6Pm-M-170" value="+ getter():  Type" style="text;strokeColor=none;fillColor=none;align=left;verticalAlign=top;spacingLeft=4;spacingRight=4;overflow=hidden;rotatable=0;points=[[0,0.5],[1,0.5]];portConstraint=eastwest;" parent="A_9Sl46dPCUKxYy6Pm-M-160" vertex="1">
          <mxGeometry y="112" width="160" height="24" as="geometry" />
        </mxCell>
        <mxCell id="A_9Sl46dPCUKxYy6Pm-M-171" value="# setter(Type): void" style="text;strokeColor=none;fillColor=none;align=left;verticalAlign=top;spacingLeft=4;spacingRight=4;overflow=hidden;rotatable=0;points=[[0,0.5],[1,0.5]];portConstraint=eastwest;" parent="A_9Sl46dPCUKxYy6Pm-M-160" vertex="1">
          <mxGeometry y="136" width="160" height="26" as="geometry" />
        </mxCell>
        <mxCell id="A_9Sl46dPCUKxYy6Pm-M-172" value="+ Servicio ()" style="text;strokeColor=none;fillColor=none;align=left;verticalAlign=top;spacingLeft=4;spacingRight=4;overflow=hidden;rotatable=0;points=[[0,0.5],[1,0.5]];portConstraint=eastwest;" parent="A_9Sl46dPCUKxYy6Pm-M-160" vertex="1">
          <mxGeometry y="162" width="160" height="26" as="geometry" />
        </mxCell>
        <mxCell id="A_9Sl46dPCUKxYy6Pm-M-173" value="+ Servicio (Type)" style="text;strokeColor=none;fillColor=none;align=left;verticalAlign=top;spacingLeft=4;spacingRight=4;overflow=hidden;rotatable=0;points=[[0,0.5],[1,0.5]];portConstraint=eastwest;" parent="A_9Sl46dPCUKxYy6Pm-M-160" vertex="1">
          <mxGeometry y="188" width="160" height="26" as="geometry" />
        </mxCell>
        <mxCell id="A_9Sl46dPCUKxYy6Pm-M-174" value="Nombramiento" style="swimlane;fontStyle=0;childLayout=stackLayout;horizontal=1;startSize=26;fillColor=none;horizontalStack=0;resizeParent=1;resizeParentMax=0;resizeLast=0;collapsible=1;marginBottom=0;" parent="1" vertex="1">
          <mxGeometry x="580" y="-340" width="160" height="266" as="geometry" />
        </mxCell>
        <mxCell id="A_9Sl46dPCUKxYy6Pm-M-175" value="- id: Long" style="text;strokeColor=none;fillColor=none;align=left;verticalAlign=top;spacingLeft=4;spacingRight=4;overflow=hidden;rotatable=0;points=[[0,0.5],[1,0.5]];portConstraint=eastwest;" parent="A_9Sl46dPCUKxYy6Pm-M-174" vertex="1">
          <mxGeometry y="26" width="160" height="26" as="geometry" />
        </mxCell>
        <mxCell id="MjNcdZxbZ1mCfYTZp8D7-37" value="- servico: Servicio" style="text;strokeColor=none;fillColor=none;align=left;verticalAlign=top;spacingLeft=4;spacingRight=4;overflow=hidden;rotatable=0;points=[[0,0.5],[1,0.5]];portConstraint=eastwest;" parent="A_9Sl46dPCUKxYy6Pm-M-174" vertex="1">
          <mxGeometry y="52" width="160" height="26" as="geometry" />
        </mxCell>
        <mxCell id="A_9Sl46dPCUKxYy6Pm-M-176" value="-  fechaInicio: Calendar" style="text;strokeColor=none;fillColor=none;align=left;verticalAlign=top;spacingLeft=4;spacingRight=4;overflow=hidden;rotatable=0;points=[[0,0.5],[1,0.5]];portConstraint=eastwest;" parent="A_9Sl46dPCUKxYy6Pm-M-174" vertex="1">
          <mxGeometry y="78" width="160" height="26" as="geometry" />
        </mxCell>
        <mxCell id="MjNcdZxbZ1mCfYTZp8D7-38" value="-  fechaFin: Calendar" style="text;strokeColor=none;fillColor=none;align=left;verticalAlign=top;spacingLeft=4;spacingRight=4;overflow=hidden;rotatable=0;points=[[0,0.5],[1,0.5]];portConstraint=eastwest;" parent="A_9Sl46dPCUKxYy6Pm-M-174" vertex="1">
          <mxGeometry y="104" width="160" height="26" as="geometry" />
        </mxCell>
        <mxCell id="A_9Sl46dPCUKxYy6Pm-M-177" value="- asignable : Asignable" style="text;strokeColor=none;fillColor=none;align=left;verticalAlign=top;spacingLeft=4;spacingRight=4;overflow=hidden;rotatable=0;points=[[0,0.5],[1,0.5]];portConstraint=eastwest;" parent="A_9Sl46dPCUKxYy6Pm-M-174" vertex="1">
          <mxGeometry y="130" width="160" height="26" as="geometry" />
        </mxCell>
        <mxCell id="A_9Sl46dPCUKxYy6Pm-M-178" value="" style="line;strokeWidth=1;fillColor=none;align=left;verticalAlign=middle;spacingTop=-1;spacingLeft=3;spacingRight=3;rotatable=0;labelPosition=right;points=[];portConstraint=eastwest;" parent="A_9Sl46dPCUKxYy6Pm-M-174" vertex="1">
          <mxGeometry y="156" width="160" height="8" as="geometry" />
        </mxCell>
        <mxCell id="A_9Sl46dPCUKxYy6Pm-M-179" value="+ getter():  Type" style="text;strokeColor=none;fillColor=none;align=left;verticalAlign=top;spacingLeft=4;spacingRight=4;overflow=hidden;rotatable=0;points=[[0,0.5],[1,0.5]];portConstraint=eastwest;" parent="A_9Sl46dPCUKxYy6Pm-M-174" vertex="1">
          <mxGeometry y="164" width="160" height="24" as="geometry" />
        </mxCell>
        <mxCell id="A_9Sl46dPCUKxYy6Pm-M-180" value="# setter(Type): void" style="text;strokeColor=none;fillColor=none;align=left;verticalAlign=top;spacingLeft=4;spacingRight=4;overflow=hidden;rotatable=0;points=[[0,0.5],[1,0.5]];portConstraint=eastwest;" parent="A_9Sl46dPCUKxYy6Pm-M-174" vertex="1">
          <mxGeometry y="188" width="160" height="26" as="geometry" />
        </mxCell>
        <mxCell id="A_9Sl46dPCUKxYy6Pm-M-181" value="+ Nombramiento ()" style="text;strokeColor=none;fillColor=none;align=left;verticalAlign=top;spacingLeft=4;spacingRight=4;overflow=hidden;rotatable=0;points=[[0,0.5],[1,0.5]];portConstraint=eastwest;" parent="A_9Sl46dPCUKxYy6Pm-M-174" vertex="1">
          <mxGeometry y="214" width="160" height="26" as="geometry" />
        </mxCell>
        <mxCell id="A_9Sl46dPCUKxYy6Pm-M-182" value="+ Nombramiento (Type)" style="text;strokeColor=none;fillColor=none;align=left;verticalAlign=top;spacingLeft=4;spacingRight=4;overflow=hidden;rotatable=0;points=[[0,0.5],[1,0.5]];portConstraint=eastwest;" parent="A_9Sl46dPCUKxYy6Pm-M-174" vertex="1">
          <mxGeometry y="240" width="160" height="26" as="geometry" />
        </mxCell>
        <mxCell id="A_9Sl46dPCUKxYy6Pm-M-192" value="&lt;&lt;Interface&gt;&gt;&#xa;GestorNombramientos" style="swimlane;fontStyle=0;childLayout=stackLayout;horizontal=1;startSize=26;fillColor=none;horizontalStack=0;resizeParent=1;resizeParentMax=0;resizeLast=0;collapsible=1;marginBottom=0;" parent="1" vertex="1">
          <mxGeometry x="1700" y="-430" width="160" height="52" as="geometry" />
        </mxCell>
        <mxCell id="A_9Sl46dPCUKxYy6Pm-M-194" value="Method" style="text;strokeColor=none;fillColor=none;align=left;verticalAlign=top;spacingLeft=4;spacingRight=4;overflow=hidden;rotatable=0;points=[[0,0.5],[1,0.5]];portConstraint=eastwest;" parent="A_9Sl46dPCUKxYy6Pm-M-192" vertex="1">
          <mxGeometry y="26" width="160" height="26" as="geometry" />
        </mxCell>
        <mxCell id="A_9Sl46dPCUKxYy6Pm-M-205" style="edgeStyle=orthogonalEdgeStyle;rounded=0;orthogonalLoop=1;jettySize=auto;html=1;entryX=0;entryY=0.25;entryDx=0;entryDy=0;startArrow=none;startFill=0;startSize=12;endArrow=block;endFill=0;endSize=12;dashed=1;" parent="1" source="A_9Sl46dPCUKxYy6Pm-M-201" target="A_9Sl46dPCUKxYy6Pm-M-192" edge="1">
          <mxGeometry relative="1" as="geometry">
            <Array as="points">
              <mxPoint x="1670" y="-320" />
              <mxPoint x="1670" y="-417" />
            </Array>
          </mxGeometry>
        </mxCell>
        <mxCell id="A_9Sl46dPCUKxYy6Pm-M-201" value="GestorNombramientosImpl" style="swimlane;fontStyle=0;childLayout=stackLayout;horizontal=1;startSize=26;fillColor=none;horizontalStack=0;resizeParent=1;resizeParentMax=0;resizeLast=0;collapsible=1;marginBottom=0;" parent="1" vertex="1">
          <mxGeometry x="1700" y="-330" width="170" height="52" as="geometry" />
        </mxCell>
        <mxCell id="A_9Sl46dPCUKxYy6Pm-M-204" value="+ field: type" style="text;strokeColor=none;fillColor=none;align=left;verticalAlign=top;spacingLeft=4;spacingRight=4;overflow=hidden;rotatable=0;points=[[0,0.5],[1,0.5]];portConstraint=eastwest;" parent="A_9Sl46dPCUKxYy6Pm-M-201" vertex="1">
          <mxGeometry y="26" width="170" height="26" as="geometry" />
        </mxCell>
        <mxCell id="A_9Sl46dPCUKxYy6Pm-M-211" style="edgeStyle=orthogonalEdgeStyle;rounded=0;orthogonalLoop=1;jettySize=auto;html=1;entryX=0;entryY=0.25;entryDx=0;entryDy=0;dashed=1;startArrow=none;startFill=0;startSize=12;endArrow=block;endFill=0;endSize=12;" parent="1" source="A_9Sl46dPCUKxYy6Pm-M-208" target="A_9Sl46dPCUKxYy6Pm-M-209" edge="1">
          <mxGeometry relative="1" as="geometry" />
        </mxCell>
        <mxCell id="A_9Sl46dPCUKxYy6Pm-M-208" value="repository&amp;nbsp;" style="shape=folder;fontStyle=1;spacingTop=10;tabWidth=40;tabHeight=14;tabPosition=left;html=1;" parent="1" vertex="1">
          <mxGeometry x="1100" y="-410" width="220" height="80" as="geometry" />
        </mxCell>
        <mxCell id="A_9Sl46dPCUKxYy6Pm-M-209" value="&lt;&lt;Interface&gt;&gt;&#xa;JpaRepository" style="swimlane;fontStyle=0;childLayout=stackLayout;horizontal=1;startSize=26;fillColor=none;horizontalStack=0;resizeParent=1;resizeParentMax=0;resizeLast=0;collapsible=1;marginBottom=0;" parent="1" vertex="1">
          <mxGeometry x="1450" y="-600" width="160" height="52" as="geometry" />
        </mxCell>
        <mxCell id="WeM3rSa_M-xNduKBVDuF-15" style="edgeStyle=orthogonalEdgeStyle;rounded=0;orthogonalLoop=1;jettySize=auto;html=1;endFill=0;endArrow=none;endSize=10;startFill=0;startSize=12;" parent="1" source="WeM3rSa_M-xNduKBVDuF-11" edge="1">
          <mxGeometry relative="1" as="geometry">
            <mxPoint x="-150" y="760" as="targetPoint" />
            <Array as="points">
              <mxPoint x="5" y="760" />
              <mxPoint x="-150" y="760" />
            </Array>
          </mxGeometry>
        </mxCell>
        <mxCell id="WeM3rSa_M-xNduKBVDuF-11" value="PersonaEspecializada" style="swimlane;fontStyle=0;childLayout=stackLayout;horizontal=1;startSize=26;fillColor=none;horizontalStack=0;resizeParent=1;resizeParentMax=0;resizeLast=0;collapsible=1;marginBottom=0;" parent="1" vertex="1">
          <mxGeometry x="-80" y="780" width="170" height="52" as="geometry" />
        </mxCell>
        <mxCell id="WeM3rSa_M-xNduKBVDuF-12" value="- especialidad: String " style="text;strokeColor=none;fillColor=none;align=left;verticalAlign=top;spacingLeft=4;spacingRight=4;overflow=hidden;rotatable=0;points=[[0,0.5],[1,0.5]];portConstraint=eastwest;" parent="WeM3rSa_M-xNduKBVDuF-11" vertex="1">
          <mxGeometry y="26" width="170" height="26" as="geometry" />
        </mxCell>
        <mxCell id="WeM3rSa_M-xNduKBVDuF-25" style="edgeStyle=orthogonalEdgeStyle;rounded=0;orthogonalLoop=1;jettySize=auto;html=1;exitX=0.5;exitY=0;exitDx=0;exitDy=0;endSize=10;endArrow=none;endFill=0;" parent="1" source="WeM3rSa_M-xNduKBVDuF-16" edge="1">
          <mxGeometry relative="1" as="geometry">
            <mxPoint x="450" y="80" as="targetPoint" />
          </mxGeometry>
        </mxCell>
        <mxCell id="WeM3rSa_M-xNduKBVDuF-16" value="Contacto" style="swimlane;fontStyle=0;childLayout=stackLayout;horizontal=1;startSize=26;fillColor=none;horizontalStack=0;resizeParent=1;resizeParentMax=0;resizeLast=0;collapsible=1;marginBottom=0;" parent="1" vertex="1">
          <mxGeometry x="380" y="106" width="140" height="188" as="geometry" />
        </mxCell>
        <mxCell id="WeM3rSa_M-xNduKBVDuF-18" value="- mail: String" style="text;strokeColor=none;fillColor=none;align=left;verticalAlign=top;spacingLeft=4;spacingRight=4;overflow=hidden;rotatable=0;points=[[0,0.5],[1,0.5]];portConstraint=eastwest;" parent="WeM3rSa_M-xNduKBVDuF-16" vertex="1">
          <mxGeometry y="26" width="140" height="26" as="geometry" />
        </mxCell>
        <mxCell id="WeM3rSa_M-xNduKBVDuF-19" value="- telefono: String" style="text;strokeColor=none;fillColor=none;align=left;verticalAlign=top;spacingLeft=4;spacingRight=4;overflow=hidden;rotatable=0;points=[[0,0.5],[1,0.5]];portConstraint=eastwest;" parent="WeM3rSa_M-xNduKBVDuF-16" vertex="1">
          <mxGeometry y="52" width="140" height="26" as="geometry" />
        </mxCell>
        <mxCell id="WeM3rSa_M-xNduKBVDuF-20" value="" style="line;strokeWidth=1;fillColor=none;align=left;verticalAlign=middle;spacingTop=-1;spacingLeft=3;spacingRight=3;rotatable=0;labelPosition=right;points=[];portConstraint=eastwest;" parent="WeM3rSa_M-xNduKBVDuF-16" vertex="1">
          <mxGeometry y="78" width="140" height="8" as="geometry" />
        </mxCell>
        <mxCell id="WeM3rSa_M-xNduKBVDuF-21" value="+ getter():  Type" style="text;strokeColor=none;fillColor=none;align=left;verticalAlign=top;spacingLeft=4;spacingRight=4;overflow=hidden;rotatable=0;points=[[0,0.5],[1,0.5]];portConstraint=eastwest;" parent="WeM3rSa_M-xNduKBVDuF-16" vertex="1">
          <mxGeometry y="86" width="140" height="24" as="geometry" />
        </mxCell>
        <mxCell id="WeM3rSa_M-xNduKBVDuF-22" value="# setter(Type): void" style="text;strokeColor=none;fillColor=none;align=left;verticalAlign=top;spacingLeft=4;spacingRight=4;overflow=hidden;rotatable=0;points=[[0,0.5],[1,0.5]];portConstraint=eastwest;" parent="WeM3rSa_M-xNduKBVDuF-16" vertex="1">
          <mxGeometry y="110" width="140" height="26" as="geometry" />
        </mxCell>
        <mxCell id="WeM3rSa_M-xNduKBVDuF-23" value="+ NoPersona ()" style="text;strokeColor=none;fillColor=none;align=left;verticalAlign=top;spacingLeft=4;spacingRight=4;overflow=hidden;rotatable=0;points=[[0,0.5],[1,0.5]];portConstraint=eastwest;" parent="WeM3rSa_M-xNduKBVDuF-16" vertex="1">
          <mxGeometry y="136" width="140" height="26" as="geometry" />
        </mxCell>
        <mxCell id="WeM3rSa_M-xNduKBVDuF-24" value="+ NoPersona (Type)" style="text;strokeColor=none;fillColor=none;align=left;verticalAlign=top;spacingLeft=4;spacingRight=4;overflow=hidden;rotatable=0;points=[[0,0.5],[1,0.5]];portConstraint=eastwest;" parent="WeM3rSa_M-xNduKBVDuF-16" vertex="1">
          <mxGeometry y="162" width="140" height="26" as="geometry" />
        </mxCell>
        <mxCell id="MjNcdZxbZ1mCfYTZp8D7-1" value="&lt;&lt;Interface&gt;&gt;&#xa;Nombrable" style="swimlane;fontStyle=0;childLayout=stackLayout;horizontal=1;startSize=26;fillColor=none;horizontalStack=0;resizeParent=1;resizeParentMax=0;resizeLast=0;collapsible=1;marginBottom=0;" parent="1" vertex="1">
          <mxGeometry x="290" y="-710" width="220" height="78" as="geometry" />
        </mxCell>
        <mxCell id="MjNcdZxbZ1mCfYTZp8D7-2" value="+ getNombre(): String" style="text;strokeColor=none;fillColor=none;align=left;verticalAlign=top;spacingLeft=4;spacingRight=4;overflow=hidden;rotatable=0;points=[[0,0.5],[1,0.5]];portConstraint=eastwest;" parent="MjNcdZxbZ1mCfYTZp8D7-1" vertex="1">
          <mxGeometry y="26" width="220" height="26" as="geometry" />
        </mxCell>
        <mxCell id="MjNcdZxbZ1mCfYTZp8D7-3" value="+ setNombre(String nombre): void" style="text;strokeColor=none;fillColor=none;align=left;verticalAlign=top;spacingLeft=4;spacingRight=4;overflow=hidden;rotatable=0;points=[[0,0.5],[1,0.5]];portConstraint=eastwest;" parent="MjNcdZxbZ1mCfYTZp8D7-1" vertex="1">
          <mxGeometry y="52" width="220" height="26" as="geometry" />
        </mxCell>
        <mxCell id="MjNcdZxbZ1mCfYTZp8D7-5" value="&lt;&lt;Interface&gt;&gt;&#xa;Identificable" style="swimlane;fontStyle=0;childLayout=stackLayout;horizontal=1;startSize=26;fillColor=none;horizontalStack=0;resizeParent=1;resizeParentMax=0;resizeLast=0;collapsible=1;marginBottom=0;" parent="1" vertex="1">
          <mxGeometry x="290" y="-613" width="220" height="78" as="geometry" />
        </mxCell>
        <mxCell id="MjNcdZxbZ1mCfYTZp8D7-6" value="+ getId(): Long" style="text;strokeColor=none;fillColor=none;align=left;verticalAlign=top;spacingLeft=4;spacingRight=4;overflow=hidden;rotatable=0;points=[[0,0.5],[1,0.5]];portConstraint=eastwest;" parent="MjNcdZxbZ1mCfYTZp8D7-5" vertex="1">
          <mxGeometry y="26" width="220" height="26" as="geometry" />
        </mxCell>
        <mxCell id="MjNcdZxbZ1mCfYTZp8D7-7" value="+ setId(Long id): void" style="text;strokeColor=none;fillColor=none;align=left;verticalAlign=top;spacingLeft=4;spacingRight=4;overflow=hidden;rotatable=0;points=[[0,0.5],[1,0.5]];portConstraint=eastwest;" parent="MjNcdZxbZ1mCfYTZp8D7-5" vertex="1">
          <mxGeometry y="52" width="220" height="26" as="geometry" />
        </mxCell>
        <mxCell id="MjNcdZxbZ1mCfYTZp8D7-8" value="&lt;&lt;Enum&gt;&gt;&#xa;TipoVia" style="swimlane;fontStyle=0;childLayout=stackLayout;horizontal=1;startSize=26;fillColor=none;horizontalStack=0;resizeParent=1;resizeParentMax=0;resizeLast=0;collapsible=1;marginBottom=0;" parent="1" vertex="1">
          <mxGeometry x="-60" y="1030" width="190" height="52" as="geometry" />
        </mxCell>
        <mxCell id="MjNcdZxbZ1mCfYTZp8D7-13" value="Pais" style="swimlane;fontStyle=0;childLayout=stackLayout;horizontal=1;startSize=26;fillColor=none;horizontalStack=0;resizeParent=1;resizeParentMax=0;resizeLast=0;collapsible=1;marginBottom=0;" parent="1" vertex="1">
          <mxGeometry x="1410" y="100" width="160" height="216" as="geometry" />
        </mxCell>
        <mxCell id="MjNcdZxbZ1mCfYTZp8D7-14" value="-  codigoAlfa2: String" style="text;strokeColor=none;fillColor=none;align=left;verticalAlign=top;spacingLeft=4;spacingRight=4;overflow=hidden;rotatable=0;points=[[0,0.5],[1,0.5]];portConstraint=eastwest;" parent="MjNcdZxbZ1mCfYTZp8D7-13" vertex="1">
          <mxGeometry y="26" width="160" height="26" as="geometry" />
        </mxCell>
        <mxCell id="MjNcdZxbZ1mCfYTZp8D7-23" value="-  codigoAlfa3: String" style="text;strokeColor=none;fillColor=none;align=left;verticalAlign=top;spacingLeft=4;spacingRight=4;overflow=hidden;rotatable=0;points=[[0,0.5],[1,0.5]];portConstraint=eastwest;" parent="MjNcdZxbZ1mCfYTZp8D7-13" vertex="1">
          <mxGeometry y="52" width="160" height="26" as="geometry" />
        </mxCell>
        <mxCell id="MjNcdZxbZ1mCfYTZp8D7-24" value="-  codigoNumerico: int" style="text;strokeColor=none;fillColor=none;align=left;verticalAlign=top;spacingLeft=4;spacingRight=4;overflow=hidden;rotatable=0;points=[[0,0.5],[1,0.5]];portConstraint=eastwest;" parent="MjNcdZxbZ1mCfYTZp8D7-13" vertex="1">
          <mxGeometry y="78" width="160" height="26" as="geometry" />
        </mxCell>
        <mxCell id="MjNcdZxbZ1mCfYTZp8D7-18" value="" style="line;strokeWidth=1;fillColor=none;align=left;verticalAlign=middle;spacingTop=-1;spacingLeft=3;spacingRight=3;rotatable=0;labelPosition=right;points=[];portConstraint=eastwest;" parent="MjNcdZxbZ1mCfYTZp8D7-13" vertex="1">
          <mxGeometry y="104" width="160" height="8" as="geometry" />
        </mxCell>
        <mxCell id="MjNcdZxbZ1mCfYTZp8D7-19" value="+ getter():  Type" style="text;strokeColor=none;fillColor=none;align=left;verticalAlign=top;spacingLeft=4;spacingRight=4;overflow=hidden;rotatable=0;points=[[0,0.5],[1,0.5]];portConstraint=eastwest;" parent="MjNcdZxbZ1mCfYTZp8D7-13" vertex="1">
          <mxGeometry y="112" width="160" height="26" as="geometry" />
        </mxCell>
        <mxCell id="MjNcdZxbZ1mCfYTZp8D7-20" value="# setter(Type): void" style="text;strokeColor=none;fillColor=none;align=left;verticalAlign=top;spacingLeft=4;spacingRight=4;overflow=hidden;rotatable=0;points=[[0,0.5],[1,0.5]];portConstraint=eastwest;" parent="MjNcdZxbZ1mCfYTZp8D7-13" vertex="1">
          <mxGeometry y="138" width="160" height="26" as="geometry" />
        </mxCell>
        <mxCell id="MjNcdZxbZ1mCfYTZp8D7-21" value="+ Localidad()" style="text;strokeColor=none;fillColor=none;align=left;verticalAlign=top;spacingLeft=4;spacingRight=4;overflow=hidden;rotatable=0;points=[[0,0.5],[1,0.5]];portConstraint=eastwest;" parent="MjNcdZxbZ1mCfYTZp8D7-13" vertex="1">
          <mxGeometry y="164" width="160" height="26" as="geometry" />
        </mxCell>
        <mxCell id="MjNcdZxbZ1mCfYTZp8D7-22" value="+ Localidad(Type)" style="text;strokeColor=none;fillColor=none;align=left;verticalAlign=top;spacingLeft=4;spacingRight=4;overflow=hidden;rotatable=0;points=[[0,0.5],[1,0.5]];portConstraint=eastwest;" parent="MjNcdZxbZ1mCfYTZp8D7-13" vertex="1">
          <mxGeometry y="190" width="160" height="26" as="geometry" />
        </mxCell>
        <mxCell id="MjNcdZxbZ1mCfYTZp8D7-27" value="" style="group" parent="1" vertex="1" connectable="0">
          <mxGeometry x="150" y="80" width="1340" height="20" as="geometry" />
        </mxCell>
        <mxCell id="A_9Sl46dPCUKxYy6Pm-M-159" style="edgeStyle=orthogonalEdgeStyle;rounded=0;orthogonalLoop=1;jettySize=auto;html=1;exitX=0.5;exitY=0;exitDx=0;exitDy=0;startArrow=none;startFill=0;startSize=12;endArrow=block;endFill=0;endSize=12;" parent="MjNcdZxbZ1mCfYTZp8D7-27" source="A_9Sl46dPCUKxYy6Pm-M-149" edge="1">
          <mxGeometry relative="1" as="geometry">
            <mxPoint y="-230" as="targetPoint" />
            <Array as="points">
              <mxPoint x="1120" y="20" />
              <mxPoint x="1120" />
              <mxPoint />
            </Array>
          </mxGeometry>
        </mxCell>
        <mxCell id="MjNcdZxbZ1mCfYTZp8D7-26" style="edgeStyle=orthogonalEdgeStyle;rounded=0;orthogonalLoop=1;jettySize=auto;html=1;exitX=0.5;exitY=0;exitDx=0;exitDy=0;endArrow=none;endFill=0;" parent="MjNcdZxbZ1mCfYTZp8D7-27" source="MjNcdZxbZ1mCfYTZp8D7-13" edge="1">
          <mxGeometry relative="1" as="geometry">
            <mxPoint x="1100" as="targetPoint" />
            <Array as="points">
              <mxPoint x="1340" />
            </Array>
          </mxGeometry>
        </mxCell>
        <mxCell id="MjNcdZxbZ1mCfYTZp8D7-58" style="edgeStyle=orthogonalEdgeStyle;rounded=0;orthogonalLoop=1;jettySize=auto;html=1;endArrow=block;endFill=0;startArrow=none;startFill=0;endSize=12;startSize=17;" parent="1" source="MjNcdZxbZ1mCfYTZp8D7-51" target="A_9Sl46dPCUKxYy6Pm-M-36" edge="1">
          <mxGeometry relative="1" as="geometry">
            <Array as="points">
              <mxPoint x="1700" y="80" />
              <mxPoint x="150" y="80" />
            </Array>
          </mxGeometry>
        </mxCell>
        <mxCell id="MjNcdZxbZ1mCfYTZp8D7-51" value="Localidad" style="swimlane;fontStyle=0;childLayout=stackLayout;horizontal=1;startSize=26;fillColor=none;horizontalStack=0;resizeParent=1;resizeParentMax=0;resizeLast=0;collapsible=1;marginBottom=0;" parent="1" vertex="1">
          <mxGeometry x="1630" y="101" width="140" height="164" as="geometry" />
        </mxCell>
        <mxCell id="MjNcdZxbZ1mCfYTZp8D7-52" value="-  pais: Pais" style="text;strokeColor=none;fillColor=none;align=left;verticalAlign=top;spacingLeft=4;spacingRight=4;overflow=hidden;rotatable=0;points=[[0,0.5],[1,0.5]];portConstraint=eastwest;" parent="MjNcdZxbZ1mCfYTZp8D7-51" vertex="1">
          <mxGeometry y="26" width="140" height="26" as="geometry" />
        </mxCell>
        <mxCell id="MjNcdZxbZ1mCfYTZp8D7-53" value="" style="line;strokeWidth=1;fillColor=none;align=left;verticalAlign=middle;spacingTop=-1;spacingLeft=3;spacingRight=3;rotatable=0;labelPosition=right;points=[];portConstraint=eastwest;" parent="MjNcdZxbZ1mCfYTZp8D7-51" vertex="1">
          <mxGeometry y="52" width="140" height="8" as="geometry" />
        </mxCell>
        <mxCell id="MjNcdZxbZ1mCfYTZp8D7-54" value="+ getter():  Type" style="text;strokeColor=none;fillColor=none;align=left;verticalAlign=top;spacingLeft=4;spacingRight=4;overflow=hidden;rotatable=0;points=[[0,0.5],[1,0.5]];portConstraint=eastwest;" parent="MjNcdZxbZ1mCfYTZp8D7-51" vertex="1">
          <mxGeometry y="60" width="140" height="26" as="geometry" />
        </mxCell>
        <mxCell id="MjNcdZxbZ1mCfYTZp8D7-55" value="# setter(Type): void" style="text;strokeColor=none;fillColor=none;align=left;verticalAlign=top;spacingLeft=4;spacingRight=4;overflow=hidden;rotatable=0;points=[[0,0.5],[1,0.5]];portConstraint=eastwest;" parent="MjNcdZxbZ1mCfYTZp8D7-51" vertex="1">
          <mxGeometry y="86" width="140" height="26" as="geometry" />
        </mxCell>
        <mxCell id="MjNcdZxbZ1mCfYTZp8D7-56" value="+ Localidad()" style="text;strokeColor=none;fillColor=none;align=left;verticalAlign=top;spacingLeft=4;spacingRight=4;overflow=hidden;rotatable=0;points=[[0,0.5],[1,0.5]];portConstraint=eastwest;" parent="MjNcdZxbZ1mCfYTZp8D7-51" vertex="1">
          <mxGeometry y="112" width="140" height="26" as="geometry" />
        </mxCell>
        <mxCell id="MjNcdZxbZ1mCfYTZp8D7-57" value="+ Localidad(Type)" style="text;strokeColor=none;fillColor=none;align=left;verticalAlign=top;spacingLeft=4;spacingRight=4;overflow=hidden;rotatable=0;points=[[0,0.5],[1,0.5]];portConstraint=eastwest;" parent="MjNcdZxbZ1mCfYTZp8D7-51" vertex="1">
          <mxGeometry y="138" width="140" height="26" as="geometry" />
        </mxCell>
        <mxCell id="MjNcdZxbZ1mCfYTZp8D7-66" style="edgeStyle=orthogonalEdgeStyle;rounded=0;orthogonalLoop=1;jettySize=auto;html=1;startArrow=none;startFill=0;startSize=17;endArrow=block;endFill=0;endSize=12;" parent="1" source="MjNcdZxbZ1mCfYTZp8D7-59" target="A_9Sl46dPCUKxYy6Pm-M-36" edge="1">
          <mxGeometry relative="1" as="geometry">
            <Array as="points">
              <mxPoint x="1900" y="80" />
              <mxPoint x="150" y="80" />
            </Array>
          </mxGeometry>
        </mxCell>
        <mxCell id="MjNcdZxbZ1mCfYTZp8D7-59" value="TipoServicio" style="swimlane;fontStyle=0;childLayout=stackLayout;horizontal=1;startSize=26;fillColor=none;horizontalStack=0;resizeParent=1;resizeParentMax=0;resizeLast=0;collapsible=1;marginBottom=0;" parent="1" vertex="1">
          <mxGeometry x="1810" y="102" width="180" height="164" as="geometry" />
        </mxCell>
        <mxCell id="MjNcdZxbZ1mCfYTZp8D7-60" value="-  realizadores:List&lt;Categoria&gt;" style="text;strokeColor=none;fillColor=none;align=left;verticalAlign=top;spacingLeft=4;spacingRight=4;overflow=hidden;rotatable=0;points=[[0,0.5],[1,0.5]];portConstraint=eastwest;" parent="MjNcdZxbZ1mCfYTZp8D7-59" vertex="1">
          <mxGeometry y="26" width="180" height="26" as="geometry" />
        </mxCell>
        <mxCell id="MjNcdZxbZ1mCfYTZp8D7-61" value="" style="line;strokeWidth=1;fillColor=none;align=left;verticalAlign=middle;spacingTop=-1;spacingLeft=3;spacingRight=3;rotatable=0;labelPosition=right;points=[];portConstraint=eastwest;" parent="MjNcdZxbZ1mCfYTZp8D7-59" vertex="1">
          <mxGeometry y="52" width="180" height="8" as="geometry" />
        </mxCell>
        <mxCell id="MjNcdZxbZ1mCfYTZp8D7-62" value="+ getter():  Type" style="text;strokeColor=none;fillColor=none;align=left;verticalAlign=top;spacingLeft=4;spacingRight=4;overflow=hidden;rotatable=0;points=[[0,0.5],[1,0.5]];portConstraint=eastwest;" parent="MjNcdZxbZ1mCfYTZp8D7-59" vertex="1">
          <mxGeometry y="60" width="180" height="26" as="geometry" />
        </mxCell>
        <mxCell id="MjNcdZxbZ1mCfYTZp8D7-63" value="# setter(Type): void" style="text;strokeColor=none;fillColor=none;align=left;verticalAlign=top;spacingLeft=4;spacingRight=4;overflow=hidden;rotatable=0;points=[[0,0.5],[1,0.5]];portConstraint=eastwest;" parent="MjNcdZxbZ1mCfYTZp8D7-59" vertex="1">
          <mxGeometry y="86" width="180" height="26" as="geometry" />
        </mxCell>
        <mxCell id="MjNcdZxbZ1mCfYTZp8D7-64" value="+ TipoServico()" style="text;strokeColor=none;fillColor=none;align=left;verticalAlign=top;spacingLeft=4;spacingRight=4;overflow=hidden;rotatable=0;points=[[0,0.5],[1,0.5]];portConstraint=eastwest;" parent="MjNcdZxbZ1mCfYTZp8D7-59" vertex="1">
          <mxGeometry y="112" width="180" height="26" as="geometry" />
        </mxCell>
        <mxCell id="MjNcdZxbZ1mCfYTZp8D7-65" value="+ TiposServicos(Type)" style="text;strokeColor=none;fillColor=none;align=left;verticalAlign=top;spacingLeft=4;spacingRight=4;overflow=hidden;rotatable=0;points=[[0,0.5],[1,0.5]];portConstraint=eastwest;" parent="MjNcdZxbZ1mCfYTZp8D7-59" vertex="1">
          <mxGeometry y="138" width="180" height="26" as="geometry" />
        </mxCell>
      </root>
    </mxGraphModel>
  </diagram>
</mxfile>
